<svg width="40" height="40" viewBox="0 0 59 59" fill="none" xmlns="http://www.w3.org/2000/svg">
<path d="M26.5608 3.38037C27.2146 0.181374 31.7854 0.181373 32.4392 3.38037L35.9762 20.6853C36.2169 21.8628 37.1372 22.7831 38.3147 23.0238L55.6196 26.5608C58.8186 27.2146 58.8186 31.7854 55.6196 32.4392L38.3147 35.9762C37.1372 36.2169 36.2169 37.1372 35.9762 38.3147L32.4392 55.6196C31.7854 58.8186 27.2146 58.8186 26.5608 55.6196L23.0238 38.3147C22.7831 37.1372 21.8628 36.2169 20.6853 35.9762L3.38037 32.4392C0.181374 31.7854 0.181373 27.2146 3.38037 26.5608L20.6853 23.0238C21.8628 22.7831 22.7831 21.8628 23.0238 20.6853L26.5608 3.38037Z" fill="white"/>
</svg>
